<svg viewBox="0 0 120 120" xmlns="http://www.w3.org/2000/svg">
  <defs>
    <linearGradient id="g3" x1="0.16" y1="0.02" x2="0.62" y2="1">
      <stop offset="0" stop-color="#F8D26B"/><stop offset="0.52" stop-color="#EFB944"/><stop offset="1" stop-color="#B7841F"/>
    </linearGradient>
    <radialGradient id="gl3" cx="0.5" cy="0.42" r="0.62">
      <stop offset="0" stop-color="#FDECB6" stop-opacity="0.36"/>
      <stop offset="1" stop-color="#FDECB6" stop-opacity="0"/>
    </radialGradient>
    <path id="lp" d="M60 26 L64.5 60 L55.5 60 Z"/>
    <path id="sp" d="M60 41 L62.6 60 L57.4 60 Z"/>
    <path id="tk" d="M60 2.5 L60 -3.5"/>
  </defs>
  <circle cx="60" cy="58" r="51" fill="url(#gl3)"/>
  <circle cx="60" cy="60" r="56" fill="none" stroke="#FDECB6" stroke-opacity="0.42" stroke-width="1.4"/>
  <g stroke="#FDECB6" stroke-opacity="0.65" stroke-width="2"><use href="#tk" transform="rotate(0 60 60)"/><use href="#tk" transform="rotate(45 60 60)"/><use href="#tk" transform="rotate(90 60 60)"/><use href="#tk" transform="rotate(135 60 60)"/><use href="#tk" transform="rotate(180 60 60)"/><use href="#tk" transform="rotate(225 60 60)"/><use href="#tk" transform="rotate(270 60 60)"/><use href="#tk" transform="rotate(315 60 60)"/></g>
  <path d="M60 6 L106 33 L106 87 L60 114 L14 87 L14 33 Z" fill="none" stroke="#5A4413" stroke-width="5" stroke-linejoin="round"/>
  <path d="M60 6 L106 33 L106 87 L60 114 L14 87 L14 33 Z" fill="url(#g3)" stroke="#F8D26B" stroke-width="2.4" stroke-linejoin="round"/>
  <g stroke="none">
    <path d="M60 60 L14 33 L60 6 Z" fill="#FFFFFF" fill-opacity="0.20"/>
    <path d="M60 60 L60 6 L106 33 Z" fill="#FFFFFF" fill-opacity="0.09"/>
    <path d="M60 60 L14 87 L14 33 Z" fill="#000000" fill-opacity="0.04"/>
    <path d="M60 60 L106 33 L106 87 Z" fill="#000000" fill-opacity="0.10"/>
    <path d="M60 60 L60 114 L14 87 Z" fill="#000000" fill-opacity="0.13"/>
    <path d="M60 60 L106 87 L60 114 Z" fill="#000000" fill-opacity="0.20"/>
  </g>
  <g stroke="#FFFFFF" stroke-opacity="0.15" stroke-width="1">
    <path d="M60 60 L60 6 M60 60 L106 33 M60 60 L106 87 M60 60 L60 114 M60 60 L14 87 M60 60 L14 33"/>
  </g>
  <path d="M60 16.8 L96.8 38.4 L96.8 81.6 L60 103.2 L23.2 81.6 L23.2 38.4 Z" fill="none" stroke="#FFFFFF" stroke-opacity="0.16" stroke-width="1.2" stroke-linejoin="round"/>
  <path d="M27 37 Q60 15 93 37" fill="none" stroke="#FFFFFF" stroke-opacity="0.24" stroke-width="3.4" stroke-linecap="round"/>
  <circle cx="60" cy="60" r="17.5" fill="none" stroke="#FDECB6" stroke-opacity="0.5" stroke-width="1.3"/>
  <circle cx="60" cy="60" r="11" fill="none" stroke="#FDECB6" stroke-opacity="0.36" stroke-width="1"/>
  <g fill="#FDECB6"><use href="#lp" transform="rotate(90 60 60)"/><use href="#lp" transform="rotate(180 60 60)"/><use href="#lp" transform="rotate(270 60 60)"/></g>
  <use href="#lp" fill="#FFF8E2"/>
  <g fill="#FDECB6" fill-opacity="0.92"><use href="#sp" transform="rotate(45 60 60)"/><use href="#sp" transform="rotate(135 60 60)"/><use href="#sp" transform="rotate(225 60 60)"/><use href="#sp" transform="rotate(315 60 60)"/></g>
  <circle cx="60" cy="60" r="3.7" fill="#FFF8E2"/>
  <circle cx="60" cy="60" r="1.6" fill="#B7841F"/>
</svg>
