<svg viewBox="0 0 120 120" xmlns="http://www.w3.org/2000/svg">
  <defs>
    <linearGradient id="g6" x1="0.16" y1="0.02" x2="0.62" y2="1">
      <stop offset="0" stop-color="#FC4C33"/><stop offset="0.52" stop-color="#E22E1C"/><stop offset="1" stop-color="#8C120A"/>
    </linearGradient>
    <radialGradient id="gl6" cx="0.5" cy="0.42" r="0.62">
      <stop offset="0" stop-color="#FFC5BA" stop-opacity="0.58"/>
      <stop offset="1" stop-color="#FFC5BA" stop-opacity="0"/>
    </radialGradient>
    <path id="lp" d="M60 26 L64.5 60 L55.5 60 Z"/>
    <path id="sp" d="M60 41 L62.6 60 L57.4 60 Z"/>
    <path id="tk" d="M60 2.5 L60 -3.5"/>
    <path id="ck" d="M60 3.5 L60 -7.5"/>
    <path id="nb" d="M55.5 8 L60 2 L64.5 8 Z"/>
    <path id="ry" d="M60 60 L57 -4 L63 -4 Z"/>
  </defs>
  <circle cx="60" cy="58" r="60" fill="url(#gl6)"/>
  <g fill="#FFC5BA" fill-opacity="0.28"><use href="#ry" transform="rotate(0 60 60)"/><use href="#ry" transform="rotate(30 60 60)"/><use href="#ry" transform="rotate(60 60 60)"/><use href="#ry" transform="rotate(90 60 60)"/><use href="#ry" transform="rotate(120 60 60)"/><use href="#ry" transform="rotate(150 60 60)"/><use href="#ry" transform="rotate(180 60 60)"/><use href="#ry" transform="rotate(210 60 60)"/><use href="#ry" transform="rotate(240 60 60)"/><use href="#ry" transform="rotate(270 60 60)"/><use href="#ry" transform="rotate(300 60 60)"/><use href="#ry" transform="rotate(330 60 60)"/></g>
  <circle cx="60" cy="60" r="60" fill="none" stroke="#FFC5BA" stroke-opacity="0.5" stroke-width="1.6"/>
  <circle cx="60" cy="60" r="52.5" fill="none" stroke="#FFC5BA" stroke-opacity="0.26" stroke-width="1"/>
  <g stroke="#FFC5BA" stroke-opacity="0.65" stroke-width="2"><use href="#tk" transform="rotate(0 60 60)"/><use href="#tk" transform="rotate(15 60 60)"/><use href="#tk" transform="rotate(30 60 60)"/><use href="#tk" transform="rotate(45 60 60)"/><use href="#tk" transform="rotate(60 60 60)"/><use href="#tk" transform="rotate(75 60 60)"/><use href="#tk" transform="rotate(90 60 60)"/><use href="#tk" transform="rotate(105 60 60)"/><use href="#tk" transform="rotate(120 60 60)"/><use href="#tk" transform="rotate(135 60 60)"/><use href="#tk" transform="rotate(150 60 60)"/><use href="#tk" transform="rotate(165 60 60)"/><use href="#tk" transform="rotate(180 60 60)"/><use href="#tk" transform="rotate(195 60 60)"/><use href="#tk" transform="rotate(210 60 60)"/><use href="#tk" transform="rotate(225 60 60)"/><use href="#tk" transform="rotate(240 60 60)"/><use href="#tk" transform="rotate(255 60 60)"/><use href="#tk" transform="rotate(270 60 60)"/><use href="#tk" transform="rotate(285 60 60)"/><use href="#tk" transform="rotate(300 60 60)"/><use href="#tk" transform="rotate(315 60 60)"/><use href="#tk" transform="rotate(330 60 60)"/><use href="#tk" transform="rotate(345 60 60)"/></g>
  <g stroke="#FFC5BA" stroke-opacity="0.85" stroke-width="2.4" stroke-linecap="round"><use href="#ck" transform="rotate(0 60 60)"/><use href="#ck" transform="rotate(90 60 60)"/><use href="#ck" transform="rotate(180 60 60)"/><use href="#ck" transform="rotate(270 60 60)"/></g>
  <g fill="#FFC5BA" fill-opacity="0.85" stroke="#420C05" stroke-opacity="0.4" stroke-width="0.7" stroke-linejoin="round"><use href="#nb" transform="rotate(0 60 60)"/><use href="#nb" transform="rotate(60 60 60)"/><use href="#nb" transform="rotate(120 60 60)"/><use href="#nb" transform="rotate(180 60 60)"/><use href="#nb" transform="rotate(240 60 60)"/><use href="#nb" transform="rotate(300 60 60)"/></g>
  <path d="M60 6 L106 33 L106 87 L60 114 L14 87 L14 33 Z" fill="none" stroke="#420C05" stroke-width="5" stroke-linejoin="round"/>
  <path d="M60 6 L106 33 L106 87 L60 114 L14 87 L14 33 Z" fill="url(#g6)" stroke="#FC4C33" stroke-width="2.4" stroke-linejoin="round"/>
  <g stroke="none">
    <path d="M60 60 L14 33 L60 6 Z" fill="#FFFFFF" fill-opacity="0.20"/>
    <path d="M60 60 L60 6 L106 33 Z" fill="#FFFFFF" fill-opacity="0.09"/>
    <path d="M60 60 L14 87 L14 33 Z" fill="#000000" fill-opacity="0.04"/>
    <path d="M60 60 L106 33 L106 87 Z" fill="#000000" fill-opacity="0.10"/>
    <path d="M60 60 L60 114 L14 87 Z" fill="#000000" fill-opacity="0.13"/>
    <path d="M60 60 L106 87 L60 114 Z" fill="#000000" fill-opacity="0.20"/>
  </g>
  <g stroke="#FFFFFF" stroke-opacity="0.15" stroke-width="1">
    <path d="M60 60 L60 6 M60 60 L106 33 M60 60 L106 87 M60 60 L60 114 M60 60 L14 87 M60 60 L14 33"/>
  </g>
  <path d="M60 16.8 L96.8 38.4 L96.8 81.6 L60 103.2 L23.2 81.6 L23.2 38.4 Z" fill="none" stroke="#FFFFFF" stroke-opacity="0.16" stroke-width="1.2" stroke-linejoin="round"/>
  <path d="M27 37 Q60 15 93 37" fill="none" stroke="#FFFFFF" stroke-opacity="0.24" stroke-width="3.4" stroke-linecap="round"/>
  <path d="M39 16 L43 5 L50 12 L55 3 L60 0 L65 3 L70 12 L77 5 L81 16 Z" fill="#FFC5BA" fill-opacity="0.95" stroke="#FFE9E3" stroke-opacity="0.6" stroke-width="0.9" stroke-linejoin="round"/>
  <g fill="#FFE9E3"><circle cx="55" cy="4.5" r="1.5"/><circle cx="60" cy="2" r="1.8"/><circle cx="65" cy="4.5" r="1.5"/></g>
  <circle cx="60" cy="60" r="17.5" fill="none" stroke="#FFC5BA" stroke-opacity="0.5" stroke-width="1.3"/>
  <circle cx="60" cy="60" r="11" fill="none" stroke="#FFC5BA" stroke-opacity="0.36" stroke-width="1"/>
  <g fill="#FFC5BA" fill-opacity="0.8">
    <circle cx="68.6" cy="39.2" r="1.2"/><circle cx="80.8" cy="51.4" r="1.2"/>
    <circle cx="80.8" cy="68.6" r="1.2"/><circle cx="68.6" cy="80.8" r="1.2"/>
    <circle cx="51.4" cy="80.8" r="1.2"/><circle cx="39.2" cy="68.6" r="1.2"/>
    <circle cx="39.2" cy="51.4" r="1.2"/><circle cx="51.4" cy="39.2" r="1.2"/>
  </g>
  <g fill="#FFC5BA"><use href="#lp" transform="rotate(90 60 60)"/><use href="#lp" transform="rotate(180 60 60)"/><use href="#lp" transform="rotate(270 60 60)"/></g>
  <use href="#lp" fill="#FFE9E3"/>
  <g fill="#FFC5BA" fill-opacity="0.92"><use href="#sp" transform="rotate(45 60 60)"/><use href="#sp" transform="rotate(135 60 60)"/><use href="#sp" transform="rotate(225 60 60)"/><use href="#sp" transform="rotate(315 60 60)"/></g>
  <circle cx="60" cy="60" r="3.7" fill="#FFE9E3"/>
  <circle cx="60" cy="60" r="1.6" fill="#8C120A"/>
  <circle cx="60" cy="60" r="1.7" fill="#FFDFA6"/>
</svg>
